<svg width="24" height="24" viewBox="0 0 24 24" fill="none" xmlns="http://www.w3.org/2000/svg">
<path d="M22.095 13.9806C21.2964 13.9806 20.5976 14.4715 20.3147 15.2205H19.1834V14.0138H20.8554C21.2298 14.0138 21.5293 13.7059 21.5293 13.3398C21.5293 12.9736 21.2215 12.6657 20.8554 12.6657H19.1834V11.3842H20.8554C21.2298 11.3842 21.5293 11.0763 21.5293 10.7102C21.5293 10.344 21.2215 10.0361 20.8554 10.0361H19.1834V8.78781H20.3147C20.5976 9.52013 21.2964 10.0194 22.095 10.0194C23.1432 10.0194 24 9.16228 24 8.1054C24 7.05683 23.1431 6.19972 22.095 6.19972C21.2964 6.19972 20.5976 6.69071 20.3147 7.43135H19.1834V6.56588C19.1834 5.60055 18.4014 4.81833 17.4447 4.81833H16.5713V3.68657C17.3033 3.40363 17.8025 2.69626 17.8025 1.90568C17.8025 0.857105 16.9456 0 15.8891 0C14.8409 0 13.9841 0.857158 13.9841 1.90568C13.9841 2.69626 14.4749 3.4036 15.2153 3.68657V4.81833H14.0173V3.14566C14.0173 2.76286 13.7096 2.47161 13.3435 2.47161C12.9609 2.47161 12.6697 2.7712 12.6697 3.14566V4.81833H11.3886V3.14566C11.3886 2.76286 11.0808 2.47161 10.7148 2.47161C10.3322 2.47161 10.0327 2.7712 10.0327 3.14566V4.81833H8.78484V3.68657C9.5169 3.40363 10.0243 2.69626 10.0243 1.90568C10.0243 0.857105 9.16748 0 8.11097 0C7.05446 0 6.1976 0.857158 6.1976 1.90568C6.1976 2.69626 6.69674 3.4036 7.4371 3.68657V4.81833H6.57194C5.60695 4.81833 4.83331 5.60061 4.83331 6.56588V7.43135H3.69363C3.41079 6.69903 2.70368 6.19972 1.91337 6.19972C0.856857 6.19972 0 7.05688 0 8.1054C0 9.16228 0.856857 10.0194 1.91337 10.0194C2.70368 10.0194 3.41077 9.52845 3.69363 8.78781H4.83331V10.0361H3.14456C2.77022 10.0361 2.47075 10.344 2.47075 10.7102C2.47075 11.0763 2.77854 11.3842 3.14456 11.3842H4.83331V12.6657H3.14456C2.77022 12.6657 2.47075 12.9736 2.47075 13.3398C2.47075 13.7059 2.77854 14.0138 3.14456 14.0138H4.83331V15.2205H3.69363C3.41079 14.4799 2.70368 13.9806 1.91337 13.9806C0.856857 13.9806 0 14.8377 0 15.8946C0 16.9432 0.856857 17.8003 1.91337 17.8003C2.70368 17.8003 3.41077 17.3093 3.69363 16.5687H4.83331V17.4424C4.83331 18.3994 5.60695 19.1817 6.57194 19.1817H7.4371V20.3134C6.70504 20.5964 6.1976 21.3037 6.1976 22.0943C6.1976 23.1512 7.05446 24 8.11097 24C9.16748 24 10.0243 23.1511 10.0243 22.0943C10.0243 21.3037 9.52521 20.5964 8.78484 20.3134V19.1817H10.0327V20.8543C10.0327 21.2371 10.3405 21.5284 10.7148 21.5284C11.0891 21.5284 11.3886 21.2288 11.3886 20.8543V19.1817H12.6697V20.8543C12.6697 21.2371 12.9692 21.5284 13.3435 21.5284C13.7179 21.5284 14.0173 21.2288 14.0173 20.8543V19.1817H15.2153V20.3134C14.4832 20.5964 13.9841 21.3037 13.9841 22.0943C13.9841 23.1512 14.8409 24 15.8891 24C16.9456 24 17.8025 23.1511 17.8025 22.0943C17.8025 21.3037 17.3116 20.5964 16.5713 20.3134V19.1817H17.4447C18.4014 19.1817 19.1834 18.3994 19.1834 17.4424V16.5687H20.3147C20.5976 17.301 21.2964 17.8003 22.095 17.8003C23.1432 17.8003 24 16.9431 24 15.8946C24 14.8377 23.1431 13.9806 22.095 13.9806ZM8.79331 13.1151V15.9195C8.79331 16.3023 8.48551 16.5936 8.11949 16.5936C7.74514 16.5936 7.44568 16.294 7.44568 15.9195V10.6685C7.44568 8.87095 8.9098 7.40632 10.7067 7.40632C12.5119 7.40632 13.976 8.87095 13.976 10.6685V15.9195C13.976 16.3023 13.6682 16.5936 13.3022 16.5936C12.9195 16.5936 12.6283 16.294 12.6283 15.9195V13.1151H8.79331ZM16.5713 15.9195C16.5713 16.3023 16.2635 16.5936 15.8891 16.5936C15.5148 16.5936 15.2153 16.294 15.2153 15.9195V8.08026C15.2153 7.70578 15.5231 7.40621 15.8891 7.40621C16.2718 7.40621 16.5713 7.71411 16.5713 8.08026V15.9195Z" fill="#CFCFE2"/>
</svg>
