<svg width="24" height="24" viewBox="0 0 24 24" fill="none" xmlns="http://www.w3.org/2000/svg">
<path d="M20.9995 10.001H18.9995V4.00098H19.9995V2.00098H3.99951V4.00098H4.99951V10.001H2.99951C2.7343 10.001 2.47994 10.1063 2.2924 10.2939C2.10487 10.4814 1.99951 10.7358 1.99951 11.001V20.001H21.9995V11.001C21.9995 10.7358 21.8942 10.4814 21.7066 10.2939C21.5191 10.1063 21.2647 10.001 20.9995 10.001ZM13.9995 18.001V14.001H9.99951V18.001H6.99951V4.00098H16.9995V18.001H13.9995Z" fill="#CFCFE2"/>
<path d="M9 6.00098H11V8.00098H9V6.00098ZM13 6.00098H15V8.00098H13V6.00098ZM9 10.001H11V12.001H9V10.001ZM13 10.001H15V12.001H13V10.001Z" fill="#CFCFE2"/>
</svg>
