<svg width="31" height="31" viewBox="0 0 31 31" fill="none" xmlns="http://www.w3.org/2000/svg">
<path d="M26.6873 13.0758H24.2123V5.65078H25.4498V3.17578H5.6498V5.65078H6.8873V13.0758H4.4123C4.0841 13.0758 3.76934 13.2062 3.53726 13.4382C3.30518 13.6703 3.1748 13.9851 3.1748 14.3133V25.4508H27.9248V14.3133C27.9248 13.9851 27.7944 13.6703 27.5623 13.4382C27.3303 13.2062 27.0155 13.0758 26.6873 13.0758ZM18.0248 22.9758V18.0258H13.0748V22.9758H9.3623V5.65078H21.7373V22.9758H18.0248Z" fill="#32A3D9"/>
<path d="M11.8379 8.125H14.3129V10.6H11.8379V8.125ZM16.7879 8.125H19.2629V10.6H16.7879V8.125ZM11.8379 13.075H14.3129V15.55H11.8379V13.075ZM16.7879 13.075H19.2629V15.55H16.7879V13.075Z" fill="#32A3D9"/>
</svg>
