<svg width="30" height="24" viewBox="0 0 30 24" fill="none" xmlns="http://www.w3.org/2000/svg">
<path d="M29.287 10.2717C29.2472 10.1191 29.122 10.0021 28.965 9.96971L28.7728 9.93048V7.29656L29.0864 7.03382C29.2104 6.93046 29.2622 6.7661 29.2196 6.61231C29.177 6.45853 29.0477 6.34241 28.8875 6.31409L27.1254 6.00092L27.1261 3.7832L27.1254 3.73744L27.4499 3.46598C27.5735 3.36232 27.6256 3.19795 27.583 3.04448C27.5405 2.89038 27.4111 2.77427 27.251 2.74594L13.0092 0.228439C12.8986 0.208515 12.7851 0.233108 12.6933 0.295991L1.65785 7.83542C1.44939 7.94873 0.686094 8.46207 0.700394 9.88877C0.7166 11.4381 1.65245 12.1417 1.69249 12.1709C1.69789 12.175 1.70393 12.1775 1.70965 12.1812C1.71919 12.1877 1.72872 12.1937 1.73857 12.1993C1.74906 12.2052 1.75986 12.2101 1.77098 12.2151C1.78083 12.2198 1.79069 12.2238 1.80149 12.2276C1.81357 12.2319 1.82564 12.2351 1.83803 12.2382C1.84503 12.2403 1.8517 12.2431 1.85869 12.2447L2.51045 12.3786C2.40463 12.6603 2.33281 13.0133 2.33758 13.4569C2.34552 14.2246 2.57909 14.7843 2.81774 15.1576L2.31279 15.5022C2.10306 15.6167 1.34103 16.131 1.35597 17.5555C1.37186 19.1049 2.30739 19.81 2.34838 19.8377C2.38366 19.8613 2.4542 19.8978 2.51395 19.9111L17.4539 22.9821C17.4555 22.9825 17.4571 22.9831 17.4587 22.9834L17.9922 23.093C18.0208 23.0989 18.0501 23.1017 18.0787 23.1017C18.1778 23.1017 18.275 23.0671 18.3519 23.003L28.1709 14.7865C28.2933 14.6841 28.3454 14.5225 28.3057 14.3703C28.2656 14.2177 28.1407 14.1007 27.9834 14.0683L27.808 14.0325V11.8126L29.1519 10.6882C29.2746 10.5855 29.327 10.4239 29.287 10.2717ZM17.357 11.7818C17.4564 11.7818 17.5537 11.7472 17.6306 11.6828L26.2881 4.43849V7.06152L17.2791 14.5676V11.7737C17.3055 11.7784 17.3312 11.7818 17.357 11.7818ZM2.30993 8.69773L16.4351 11.6012V14.3936L2.30993 11.496L2.30993 8.69773ZM2.96551 19.1597V16.3635L17.0904 19.2677V22.0638L2.96551 19.1597ZM3.95379 15.0645V12.6752L16.7986 15.3154C16.8002 15.3157 16.8015 15.3163 16.8031 15.3166L17.3366 15.4262C17.3656 15.4321 17.3945 15.4349 17.4231 15.4349C17.5222 15.4349 17.6198 15.4004 17.6967 15.3362L17.9303 15.1404L18.0713 15.1694V17.9646L3.95379 15.0645ZM26.9653 14.7093L17.9376 22.2381L17.9347 19.4405C17.9604 19.4454 17.9865 19.4482 18.0126 19.4482C18.1117 19.4482 18.2089 19.414 18.2858 19.3496L18.7622 18.9511L18.9729 18.9944C19.0015 19.0003 19.0307 19.0031 19.059 19.0031C19.1585 19.0031 19.2557 18.9685 19.3326 18.9044L26.9653 12.5146V14.7093ZM27.9453 10.6122L18.9189 18.1386L18.9157 15.3422C18.9417 15.3468 18.9675 15.3499 18.9932 15.3499C19.0927 15.3499 19.1899 15.3154 19.2668 15.2513L27.9466 7.98796L27.9453 10.6122Z" fill="#000066"/>
</svg>
