<svg width="20" height="18" viewBox="0 0 20 18" fill="none" xmlns="http://www.w3.org/2000/svg">
<path d="M10 1.5C9.53587 1.5 9.09075 1.68437 8.76256 2.01256C8.43437 2.34075 8.25 2.78587 8.25 3.25C8.25 3.71413 8.43437 4.15925 8.76256 4.48744C9.09075 4.81563 9.53587 5 10 5C10.4641 5 10.9092 4.81563 11.2374 4.48744C11.5656 4.15925 11.75 3.71413 11.75 3.25C11.75 2.78587 11.5656 2.34075 11.2374 2.01256C10.9092 1.68437 10.4641 1.5 10 1.5ZM6.75 3.25C6.75 2.38805 7.09241 1.5614 7.7019 0.951903C8.3114 0.34241 9.13805 0 10 0C10.862 0 11.6886 0.34241 12.2981 0.951903C12.9076 1.5614 13.25 2.38805 13.25 3.25C13.25 4.11195 12.9076 4.9386 12.2981 5.5481C11.6886 6.15759 10.862 6.5 10 6.5C9.13805 6.5 8.3114 6.15759 7.7019 5.5481C7.09241 4.9386 6.75 4.11195 6.75 3.25ZM3 3.5C2.60218 3.5 2.22064 3.65804 1.93934 3.93934C1.65804 4.22064 1.5 4.60218 1.5 5C1.5 5.39782 1.65804 5.77936 1.93934 6.06066C2.22064 6.34196 2.60218 6.5 3 6.5C3.39782 6.5 3.77936 6.34196 4.06066 6.06066C4.34196 5.77936 4.5 5.39782 4.5 5C4.5 4.60218 4.34196 4.22064 4.06066 3.93934C3.77936 3.65804 3.39782 3.5 3 3.5ZM0 5C0 4.20435 0.316071 3.44129 0.87868 2.87868C1.44129 2.31607 2.20435 2 3 2C3.79565 2 4.55871 2.31607 5.12132 2.87868C5.68393 3.44129 6 4.20435 6 5C6 5.79565 5.68393 6.55871 5.12132 7.12132C4.55871 7.68393 3.79565 8 3 8C2.20435 8 1.44129 7.68393 0.87868 7.12132C0.316071 6.55871 0 5.79565 0 5ZM15.5 5C15.5 4.60218 15.658 4.22064 15.9393 3.93934C16.2206 3.65804 16.6022 3.5 17 3.5C17.3978 3.5 17.7794 3.65804 18.0607 3.93934C18.342 4.22064 18.5 4.60218 18.5 5C18.5 5.39782 18.342 5.77936 18.0607 6.06066C17.7794 6.34196 17.3978 6.5 17 6.5C16.6022 6.5 16.2206 6.34196 15.9393 6.06066C15.658 5.77936 15.5 5.39782 15.5 5ZM17 2C16.2044 2 15.4413 2.31607 14.8787 2.87868C14.3161 3.44129 14 4.20435 14 5C14 5.79565 14.3161 6.55871 14.8787 7.12132C15.4413 7.68393 16.2044 8 17 8C17.7956 8 18.5587 7.68393 19.1213 7.12132C19.6839 6.55871 20 5.79565 20 5C20 4.20435 19.6839 3.44129 19.1213 2.87868C18.5587 2.31607 17.7956 2 17 2ZM5.5 9.75C5.5 8.784 6.284 8 7.25 8H12.75C13.716 8 14.5 8.784 14.5 9.75V13.5C14.5 14.6935 14.0259 15.8381 13.182 16.682C12.3381 17.5259 11.1935 18 10 18C8.80653 18 7.66193 17.5259 6.81802 16.682C5.97411 15.8381 5.5 14.6935 5.5 13.5V9.75ZM7.25 9.5C7.1837 9.5 7.12011 9.52634 7.07322 9.57322C7.02634 9.62011 7 9.6837 7 9.75V13.5C7 14.2956 7.31607 15.0587 7.87868 15.6213C8.44129 16.1839 9.20435 16.5 10 16.5C10.7956 16.5 11.5587 16.1839 12.1213 15.6213C12.6839 15.0587 13 14.2956 13 13.5V9.75C13 9.6837 12.9737 9.62011 12.9268 9.57322C12.8799 9.52634 12.8163 9.5 12.75 9.5H7.25ZM4.61 8.978C4.53733 9.224 4.50067 9.48133 4.5 9.75V10.56L1.686 11.314C1.62196 11.3311 1.56733 11.373 1.53414 11.4303C1.50095 11.4877 1.4919 11.556 1.509 11.62L2.221 14.277C2.40362 14.9586 2.82064 15.554 3.39876 15.9585C3.97688 16.3631 4.67911 16.5509 5.382 16.489C5.697 16.975 6.087 17.408 6.535 17.771C5.95307 17.9639 5.33785 18.036 4.72709 17.9826C4.11633 17.9292 3.52292 17.7516 2.98326 17.4607C2.44361 17.1697 1.9691 16.7716 1.58885 16.2907C1.2086 15.8098 0.93063 15.2562 0.772 14.664L0.0599999 12.008C-0.0600488 11.5598 0.00282356 11.0822 0.234792 10.6804C0.466761 10.2785 0.848834 9.98522 1.297 9.865L4.61 8.978ZM13.465 17.771C13.5483 17.799 13.6327 17.8243 13.718 17.847C14.8708 18.1558 16.099 17.994 17.1325 17.3973C18.166 16.8006 18.9201 15.8177 19.229 14.665L19.941 12.009C20.0006 11.787 20.0159 11.5554 19.9859 11.3275C19.956 11.0996 19.8815 10.8799 19.7666 10.6808C19.6518 10.4817 19.4988 10.3071 19.3165 10.1672C19.1341 10.0272 18.926 9.92452 18.704 9.865L15.39 8.977C15.4627 9.22367 15.4993 9.48133 15.5 9.75V10.56L18.316 11.314C18.3799 11.3313 18.4342 11.3733 18.4672 11.4306C18.5002 11.488 18.5091 11.5561 18.492 11.62L17.78 14.277C17.5974 14.9588 17.1802 15.5543 16.6018 15.9589C16.0235 16.3634 15.3211 16.5512 14.618 16.489C14.3035 16.9743 13.9143 17.4069 13.465 17.771Z" fill="#CFCFE2"/>
</svg>
