<svg width="20" height="24" viewBox="0 0 20 24" fill="none" xmlns="http://www.w3.org/2000/svg">
<path d="M14.511 15.6926C14.511 16.0189 14.3814 16.3319 14.1507 16.5626C13.9199 16.7933 13.607 16.9229 13.2807 16.9229H6.71925C6.39296 16.9229 6.08004 16.7933 5.84931 16.5626C5.61859 16.3319 5.48897 16.0189 5.48897 15.6926C5.48897 15.3664 5.61859 15.0534 5.84931 14.8227C6.08004 14.592 6.39296 14.4624 6.71925 14.4624H13.2807C13.607 14.4624 13.9199 14.592 14.1507 14.8227C14.3814 15.0534 14.511 15.3664 14.511 15.6926ZM13.2807 10.3614H6.71925C6.39296 10.3614 6.08004 10.4911 5.84931 10.7218C5.61859 10.9525 5.48897 11.2654 5.48897 11.5917C5.48897 11.918 5.61859 12.2309 5.84931 12.4617C6.08004 12.6924 6.39296 12.822 6.71925 12.822H13.2807C13.607 12.822 13.9199 12.6924 14.1507 12.4617C14.3814 12.2309 14.511 11.918 14.511 11.5917C14.511 11.2654 14.3814 10.9525 14.1507 10.7218C13.9199 10.4911 13.607 10.3614 13.2807 10.3614ZM19.4321 3.79998V21.0238C19.4321 21.5677 19.2161 22.0892 18.8315 22.4737C18.447 22.8583 17.9255 23.0743 17.3816 23.0743H2.61833C2.07452 23.0743 1.55297 22.8583 1.16844 22.4737C0.783901 22.0892 0.567871 21.5677 0.567871 21.0238V3.79998C0.567871 3.25616 0.783901 2.73462 1.16844 2.35008C1.55297 1.96555 2.07452 1.74952 2.61833 1.74952H6.15845C6.65495 1.23104 7.25127 0.81844 7.91148 0.536565C8.57169 0.25469 9.28212 0.109375 9.99999 0.109375C10.7179 0.109375 11.4283 0.25469 12.0885 0.536565C12.7487 0.81844 13.345 1.23104 13.8415 1.74952H17.3816C17.9255 1.74952 18.447 1.96555 18.8315 2.35008C19.2161 2.73462 19.4321 3.25616 19.4321 3.79998ZM7.15907 5.03025H12.8409C12.7419 4.34745 12.4002 3.72317 11.8785 3.27167C11.3568 2.82018 10.6899 2.57169 9.99999 2.57169C9.31004 2.57169 8.64318 2.82018 8.12147 3.27167C7.59976 3.72317 7.25812 4.34745 7.15907 5.03025ZM16.9715 4.21007H15.1866C15.2823 4.61317 15.3308 5.02603 15.3312 5.44034V6.26053C15.3312 6.58682 15.2016 6.89974 14.9708 7.13046C14.7401 7.36119 14.4272 7.4908 14.1009 7.4908H5.89907C5.57278 7.4908 5.25985 7.36119 5.02913 7.13046C4.79841 6.89974 4.66879 6.58682 4.66879 6.26053V5.44034C4.66913 5.02603 4.71764 4.61317 4.81335 4.21007H3.02842V20.6137H16.9715V4.21007Z" fill="#009900"/>
</svg>
