<svg width="11" height="11" viewBox="0 0 11 11" fill="none" xmlns="http://www.w3.org/2000/svg">
<path d="M9.96011 1.03989C9.49026 0.570038 8.72849 0.570038 8.25864 1.03989L7.72828 1.57025L9.42975 3.27172L9.96011 2.74136C10.43 2.27151 10.43 1.50974 9.96011 1.03989Z" fill="white"/>
<path d="M8.94362 3.75786L7.24214 2.05638L3.39176 5.90677C3.10906 6.18946 2.90126 6.53814 2.78712 6.92129L2.42056 8.15186C2.38452 8.27283 2.41768 8.40381 2.50693 8.49306C2.59618 8.58231 2.72717 8.61547 2.84814 8.57944L4.07871 8.21287C4.46186 8.09874 4.81054 7.89093 5.09324 7.60824L8.94362 3.75786Z" fill="white"/>
<path d="M2.40625 2.40625C1.64686 2.40625 1.03125 3.02185 1.03125 3.78125V8.59375C1.03125 9.35314 1.64686 9.96875 2.40625 9.96875H7.21875C7.97814 9.96875 8.59375 9.35314 8.59375 8.59375V6.1875C8.59375 5.99765 8.43985 5.84375 8.25 5.84375C8.06015 5.84375 7.90625 5.99765 7.90625 6.1875V8.59375C7.90625 8.97344 7.59845 9.28125 7.21875 9.28125H2.40625C2.02655 9.28125 1.71875 8.97344 1.71875 8.59375V3.78125C1.71875 3.40155 2.02655 3.09375 2.40625 3.09375H4.8125C5.00235 3.09375 5.15625 2.93984 5.15625 2.75C5.15625 2.56015 5.00235 2.40625 4.8125 2.40625H2.40625Z" fill="white"/>
</svg>
