<svg width="24" height="24" viewBox="0 0 24 24" fill="none" xmlns="http://www.w3.org/2000/svg">
<path opacity="0.2" d="M20.9985 6L11.9985 9L2.99854 6L11.9985 3L20.9985 6Z" fill="#CFCFE2"/>
<path d="M21.2362 5.28849L12.2362 2.28849C12.0823 2.23717 11.9158 2.23717 11.7618 2.28849L2.76184 5.28849C2.62571 5.33441 2.50563 5.41845 2.41588 5.53064C2.32614 5.64282 2.2705 5.77842 2.25559 5.92131C2.25119 5.94732 2.24899 5.97367 2.24902 6.00006V13.5001C2.24902 13.699 2.32804 13.8897 2.46869 14.0304C2.60935 14.171 2.80011 14.2501 2.99902 14.2501C3.19794 14.2501 3.3887 14.171 3.52935 14.0304C3.67001 13.8897 3.74902 13.699 3.74902 13.5001V7.04068L6.89809 8.08974C6.06142 9.44143 5.79537 11.0699 6.15834 12.6176C6.52131 14.1653 7.48364 15.5057 8.83402 16.3444C7.14652 17.0063 5.68777 18.2035 4.6209 19.8404C4.56541 19.9228 4.52687 20.0155 4.50752 20.113C4.48816 20.2105 4.48838 20.3109 4.50816 20.4083C4.52793 20.5057 4.56687 20.5982 4.62271 20.6804C4.67855 20.7626 4.75018 20.8329 4.83343 20.8872C4.91668 20.9415 5.0099 20.9787 5.10766 20.9967C5.20541 21.0147 5.30577 21.013 5.40288 20.9918C5.5 20.9707 5.59194 20.9304 5.67335 20.8734C5.75477 20.8164 5.82405 20.7438 5.87715 20.6597C7.28996 18.4922 9.52121 17.2501 11.999 17.2501C14.4768 17.2501 16.7081 18.4922 18.1209 20.6597C18.2309 20.8232 18.4008 20.9369 18.5939 20.9761C18.7871 21.0153 18.9878 20.9769 19.1529 20.8693C19.3179 20.7616 19.434 20.5933 19.476 20.4008C19.5179 20.2083 19.4824 20.0069 19.3771 19.8404C18.3103 18.2035 16.8459 17.0063 15.164 16.3444C16.5131 15.5057 17.4745 14.1662 17.8374 12.6196C18.2004 11.0731 17.9351 9.44572 17.1 8.09443L21.2362 6.71631C21.3856 6.66655 21.5155 6.57105 21.6076 6.44334C21.6996 6.31563 21.7492 6.16218 21.7492 6.00474C21.7492 5.8473 21.6996 5.69386 21.6076 5.56615C21.5155 5.43843 21.3856 5.34294 21.2362 5.29318V5.28849ZM16.499 11.2501C16.4992 11.9615 16.3307 12.6628 16.0074 13.2965C15.6841 13.9302 15.2151 14.4782 14.639 14.8956C14.0628 15.313 13.3959 15.5878 12.693 15.6975C11.9901 15.8072 11.2712 15.7487 10.5953 15.5268C9.91933 15.3048 9.30565 14.9258 8.80458 14.4208C8.3035 13.9158 7.9293 13.2991 7.71269 12.6215C7.49607 11.9438 7.44321 11.2245 7.55844 10.5225C7.67368 9.82042 7.95372 9.15572 8.37559 8.58287L11.7618 9.70787C11.9158 9.75919 12.0823 9.75919 12.2362 9.70787L15.6225 8.58287C16.1923 9.35536 16.4995 10.2901 16.499 11.2501ZM11.999 8.20974L5.3709 6.00006L11.999 3.79037L18.6271 6.00006L11.999 8.20974Z" fill="#CFCFE2"/>
</svg>
