<svg width="32" height="32" viewBox="0 0 32 32" fill="none" xmlns="http://www.w3.org/2000/svg">
<path opacity="0.2" d="M27.5492 8.3002L15.9992 12.1502L4.44922 8.3002L15.9992 4.4502L27.5492 8.3002Z" fill="#FF9933"/>
<path d="M27.8542 7.3867L16.3042 3.5367C16.1066 3.47084 15.893 3.47084 15.6954 3.5367L4.14541 7.3867C3.97072 7.44563 3.81662 7.55349 3.70144 7.69746C3.58627 7.84142 3.51487 8.01544 3.49573 8.19881C3.49008 8.2322 3.48726 8.26601 3.48731 8.29988V17.9249C3.48731 18.1801 3.58871 18.425 3.76921 18.6055C3.94972 18.786 4.19453 18.8874 4.44981 18.8874C4.70508 18.8874 4.94989 18.786 5.1304 18.6055C5.3109 18.425 5.41231 18.1801 5.41231 17.9249V9.63534L9.4536 10.9816C8.37988 12.7163 8.03845 14.8062 8.50426 16.7924C8.97007 18.7786 10.2051 20.4987 11.9381 21.5752C9.77243 22.4246 7.90037 23.961 6.53121 26.0616C6.46001 26.1674 6.41055 26.2864 6.38571 26.4115C6.36087 26.5366 6.36115 26.6654 6.38653 26.7904C6.4119 26.9154 6.46188 27.0341 6.53354 27.1397C6.6052 27.2452 6.69712 27.3354 6.80396 27.4051C6.9108 27.4748 7.03043 27.5225 7.15588 27.5456C7.28134 27.5686 7.41013 27.5665 7.53476 27.5393C7.65939 27.5122 7.77738 27.4605 7.88186 27.3873C7.98635 27.3142 8.07525 27.221 8.1434 27.1131C9.95651 24.3315 12.8199 22.7374 15.9998 22.7374C19.1797 22.7374 22.0431 24.3315 23.8562 27.1131C23.9974 27.323 24.2155 27.4688 24.4633 27.5191C24.7111 27.5694 24.9688 27.5202 25.1806 27.382C25.3924 27.2439 25.5414 27.0279 25.5952 26.7808C25.6491 26.5337 25.6035 26.2754 25.4684 26.0616C24.0992 23.961 22.22 22.4246 20.0616 21.5752C21.7929 20.4988 23.0267 18.7797 23.4924 16.795C23.9582 14.8103 23.6178 12.7218 22.546 10.9877L27.8542 9.21906C28.0459 9.15521 28.2126 9.03265 28.3308 8.86876C28.4489 8.70486 28.5125 8.50794 28.5125 8.30589C28.5125 8.10385 28.4489 7.90692 28.3308 7.74303C28.2126 7.57913 28.0459 7.45657 27.8542 7.39272V7.3867ZM21.7748 15.0374C21.7751 15.9504 21.5589 16.8504 21.1439 17.6637C20.729 18.4769 20.1271 19.1802 19.3877 19.7158C18.6483 20.2514 17.7925 20.6041 16.8904 20.7449C15.9884 20.8857 15.0657 20.8106 14.1983 20.5258C13.3309 20.241 12.5433 19.7546 11.9003 19.1065C11.2572 18.4584 10.777 17.667 10.499 16.7974C10.221 15.9277 10.1532 15.0046 10.3011 14.1036C10.4489 13.2027 10.8083 12.3496 11.3497 11.6145L15.6954 13.0582C15.893 13.1241 16.1066 13.1241 16.3042 13.0582L20.6499 11.6145C21.3811 12.6059 21.7754 13.8055 21.7748 15.0374ZM15.9998 11.1356L7.49371 8.29988L15.9998 5.46411L24.5059 8.29988L15.9998 11.1356Z" fill="#FF9933"/>
</svg>
